<svg width="148" height="38" viewBox="0 0 148 38" fill="none" xmlns="http://www.w3.org/2000/svg">
<path d="M147.5 2C147.5 1.17157 146.828 0.5 146 0.5H132.5C131.672 0.5 131 1.17157 131 2C131 2.82843 131.672 3.5 132.5 3.5H144.5V15.5C144.5 16.3284 145.172 17 146 17C146.828 17 147.5 16.3284 147.5 15.5V2ZM0.868408 2.98463C12.2033 16.0113 33.0912 31.6375 59.0149 36.2023C85.042 40.7853 115.942 34.1792 147.061 3.06066L144.939 0.93934C114.458 31.4208 84.5246 37.648 59.5351 33.2477C34.4421 28.8292 14.1301 13.6554 3.13159 1.01537L0.868408 2.98463Z" fill="white"/>
</svg>
