<svg width="129" height="87" viewBox="0 0 129 87" fill="none" xmlns="http://www.w3.org/2000/svg">
<path d="M128.007 73.7502C128.421 73.0329 128.175 72.1154 127.458 71.7011L115.768 64.9489C115.05 64.5346 114.133 64.7802 113.719 65.4976C113.304 66.215 113.55 67.1324 114.267 67.5467L124.659 73.5487L118.657 83.9399C118.242 84.6572 118.488 85.5747 119.205 85.989C119.923 86.4033 120.84 86.1577 121.254 85.4403L128.007 73.7502ZM0.527749 1.28719C3.83313 18.2319 14.1124 42.2036 34.2813 59.1171C54.5306 76.0981 84.5926 85.8292 127.096 74.449L126.32 71.551C84.6869 82.6983 55.6514 73.1227 36.209 56.8184C16.6862 40.4466 6.67951 17.1545 3.47225 0.712811L0.527749 1.28719Z" fill="#353535"/>
</svg>
