<svg width="45" height="46" viewBox="0 0 45 46" fill="none" xmlns="http://www.w3.org/2000/svg">
<rect y="0.445312" width="45" height="45" rx="13" fill="#00C12B"/>
<g clip-path="url(#clip0_107_360)">
<path fill-rule="evenodd" clip-rule="evenodd" d="M13.125 22.9453C13.125 28.1231 17.3222 32.3203 22.5 32.3203C24.2719 32.3203 25.9313 31.8281 27.345 30.9722L30.1875 31.8084C30.3507 31.8565 30.5238 31.8596 30.6887 31.8176C30.8535 31.7756 31.004 31.6899 31.1243 31.5696C31.2446 31.4493 31.3302 31.2988 31.3723 31.134C31.4143 30.9691 31.4111 30.796 31.3631 30.6328L30.5269 27.7903C31.411 26.3291 31.8773 24.6532 31.875 22.9453C31.875 17.7675 27.6778 13.5703 22.5 13.5703C17.3222 13.5703 13.125 17.7675 13.125 22.9453ZM24.6216 25.0659C26.5172 23.1694 26.7675 21.3591 26.7909 20.7197C26.8266 19.7475 26.0841 18.8006 25.2225 18.4322C25.1153 18.3857 24.9976 18.3688 24.8817 18.3833C24.7658 18.3978 24.6558 18.4432 24.5634 18.5147C23.9072 19.0284 23.4356 19.7231 22.9669 20.4019C22.8689 20.5436 22.8296 20.7177 22.8572 20.8878C22.8848 21.0579 22.9772 21.2106 23.115 21.3141L23.9728 21.8766C24.0189 21.9061 24.052 21.9522 24.0652 22.0054C24.0785 22.0585 24.0709 22.1147 24.0441 22.1625C23.8256 22.5441 23.4544 23.1 23.055 23.4994C22.6556 23.8987 22.125 24.2475 21.7678 24.4434C21.7224 24.4677 21.6698 24.4748 21.6196 24.4632C21.5695 24.4517 21.5252 24.4223 21.495 24.3806L20.8519 23.5144C20.7444 23.3908 20.5952 23.311 20.4327 23.2902C20.2702 23.2695 20.1057 23.3092 19.9706 23.4019C19.3556 23.8219 18.5738 24.3113 18.0553 25.0209C17.9889 25.1125 17.9476 25.2198 17.9352 25.3323C17.9229 25.4447 17.9401 25.5584 17.985 25.6622C18.3544 26.5247 19.3013 27.2709 20.2753 27.2353C20.9147 27.2119 22.725 26.9616 24.6216 25.0659Z" fill="#353535"/>
</g>
<defs>
<clipPath id="clip0_107_360">
<rect width="22.5" height="22.5" fill="white" transform="translate(11.25 34.1953) rotate(-90)"/>
</clipPath>
</defs>
</svg>
