<svg width="45" height="46" viewBox="0 0 45 46" fill="none" xmlns="http://www.w3.org/2000/svg">
<rect y="0.445312" width="45" height="45" rx="13" fill="#49A2FF"/>
<g clip-path="url(#clip0_107_343)">
<path fill-rule="evenodd" clip-rule="evenodd" d="M29.7912 15.8484C30.0229 15.7509 30.2765 15.7173 30.5256 15.751C30.7746 15.7848 31.0101 15.8847 31.2075 16.0403C31.4049 16.1959 31.5569 16.4016 31.6478 16.636C31.7387 16.8703 31.7651 17.1248 31.7243 17.3728L29.5981 30.27C29.3918 31.514 28.0268 32.2275 26.8859 31.6078C25.9315 31.0893 24.514 30.2906 23.239 29.4572C22.6015 29.04 20.6487 27.704 20.8887 26.7534C21.095 25.9406 24.3762 22.8862 26.2512 21.0703C26.9872 20.3568 26.6515 19.9453 25.7825 20.6015C23.6234 22.2309 20.1593 24.7087 19.0137 25.4062C18.0031 26.0212 17.4762 26.1262 16.8462 26.0212C15.6968 25.83 14.6309 25.5337 13.7609 25.1728C12.5853 24.6853 12.6425 23.069 13.76 22.5984L29.7912 15.8484Z" fill="#353535"/>
</g>
<defs>
<clipPath id="clip0_107_343">
<rect width="22.5" height="22.5" fill="white" transform="translate(11.25 11.6953)"/>
</clipPath>
</defs>
</svg>
